<svg width="34" height="34" viewBox="0 0 34 34" fill="none" xmlns="http://www.w3.org/2000/svg">
<mask id="path-1-inside-1_211_2338" fill="white">
<path d="M20.0112 16.7647C19.8436 16.7647 19.6879 16.7186 19.5497 16.6445V16.6464C19.5497 16.9101 19.4472 17.1578 19.2612 17.3433C19.0753 17.5292 18.8278 17.6317 18.5644 17.6317C18.3944 17.6317 18.2368 17.5845 18.097 17.5084C18.0829 17.7496 17.9865 17.9751 17.8145 18.1473C17.6285 18.3333 17.3811 18.4358 17.1175 18.4358C16.5939 18.4358 16.1686 18.0242 16.138 17.5082C15.9759 17.5958 15.7928 17.6417 15.6038 17.6296C15.0887 17.5958 14.6853 17.1507 14.6853 16.6161V12.1845L14.1807 13.0587C13.9885 13.3931 13.6287 13.6007 13.2413 13.6007C13.0526 13.6007 12.8661 13.5512 12.701 13.4565C12.4953 13.3373 12.3482 13.1459 12.2871 12.917C12.2256 12.6879 12.2574 12.4483 12.3763 12.243C12.3764 12.243 14.0273 9.38408 14.1281 9.20847C14.14 9.18206 14.1741 9.10548 14.2032 9.04021C14.2309 8.97789 14.2547 8.91394 14.2775 8.84965C14.7753 7.44409 16.0081 6.57099 17.4948 6.57099C19.4255 6.57099 20.9962 8.2742 20.9962 10.3678L20.9964 15.7793C20.9964 16.0426 20.8941 16.2901 20.7083 16.4762C20.5223 16.6622 20.2748 16.7647 20.0111 16.7647L20.0112 16.7647ZM17.4949 7.09453C16.2173 7.09453 15.1991 7.81612 14.7709 9.02474C14.7435 9.10149 14.715 9.17824 14.6817 9.25302C14.5851 9.46965 14.5851 9.46965 14.5579 9.50081L14.5543 9.49769C14.4195 9.75205 14.019 10.4456 12.8296 12.505C12.7807 12.5895 12.7678 12.6875 12.7927 12.7813C12.8179 12.8751 12.8785 12.9542 12.9623 13.0025C13.2224 13.1519 13.5786 13.0555 13.7268 12.7972L14.7204 11.0769C14.7798 10.9744 14.8998 10.9241 15.015 10.9552C15.1294 10.9859 15.209 11.0897 15.209 11.2081V16.6163C15.209 16.8714 15.4015 17.0917 15.6381 17.1072C15.7746 17.1145 15.9018 17.0687 15.9975 16.9733C16.0844 16.8863 16.1323 16.7706 16.1323 16.6467V13.1098C16.1323 12.9651 16.2495 12.8479 16.3942 12.8479C16.5388 12.8479 16.656 12.965 16.656 13.1098L16.6559 17.4507C16.6559 17.7052 16.863 17.9123 17.1175 17.9123C17.2412 17.9123 17.3573 17.8645 17.4444 17.7775C17.5313 17.6905 17.5792 17.5744 17.5792 17.4507V13.1098C17.5792 12.9651 17.6962 12.8479 17.8411 12.8479C17.9857 12.8479 18.103 12.9649 18.103 13.1098L18.1028 16.6061V16.6467C18.1028 16.9011 18.3099 17.1082 18.5646 17.1082C18.6881 17.1082 18.8039 17.0602 18.8914 16.9729C18.9783 16.8862 19.0262 16.7704 19.0262 16.6466V13.1096C19.0262 12.9649 19.1433 12.8477 19.2881 12.8477C19.4328 12.8477 19.55 12.9648 19.55 13.1096L19.5497 15.7794C19.5497 16.0341 19.7568 16.2412 20.0112 16.2412C20.135 16.2412 20.2508 16.1931 20.3377 16.1064C20.4249 16.0191 20.4726 15.903 20.4726 15.7794L20.4728 10.3679C20.4728 8.56316 19.1369 7.09458 17.4948 7.09458L17.4949 7.09453Z"/>
</mask>
<path d="M20.0112 16.7647C19.8436 16.7647 19.6879 16.7186 19.5497 16.6445V16.6464C19.5497 16.9101 19.4472 17.1578 19.2612 17.3433C19.0753 17.5292 18.8278 17.6317 18.5644 17.6317C18.3944 17.6317 18.2368 17.5845 18.097 17.5084C18.0829 17.7496 17.9865 17.9751 17.8145 18.1473C17.6285 18.3333 17.3811 18.4358 17.1175 18.4358C16.5939 18.4358 16.1686 18.0242 16.138 17.5082C15.9759 17.5958 15.7928 17.6417 15.6038 17.6296C15.0887 17.5958 14.6853 17.1507 14.6853 16.6161V12.1845L14.1807 13.0587C13.9885 13.3931 13.6287 13.6007 13.2413 13.6007C13.0526 13.6007 12.8661 13.5512 12.701 13.4565C12.4953 13.3373 12.3482 13.1459 12.2871 12.917C12.2256 12.6879 12.2574 12.4483 12.3763 12.243C12.3764 12.243 14.0273 9.38408 14.1281 9.20847C14.14 9.18206 14.1741 9.10548 14.2032 9.04021C14.2309 8.97789 14.2547 8.91394 14.2775 8.84965C14.7753 7.44409 16.0081 6.57099 17.4948 6.57099C19.4255 6.57099 20.9962 8.2742 20.9962 10.3678L20.9964 15.7793C20.9964 16.0426 20.8941 16.2901 20.7083 16.4762C20.5223 16.6622 20.2748 16.7647 20.0111 16.7647L20.0112 16.7647ZM17.4949 7.09453C16.2173 7.09453 15.1991 7.81612 14.7709 9.02474C14.7435 9.10149 14.715 9.17824 14.6817 9.25302C14.5851 9.46965 14.5851 9.46965 14.5579 9.50081L14.5543 9.49769C14.4195 9.75205 14.019 10.4456 12.8296 12.505C12.7807 12.5895 12.7678 12.6875 12.7927 12.7813C12.8179 12.8751 12.8785 12.9542 12.9623 13.0025C13.2224 13.1519 13.5786 13.0555 13.7268 12.7972L14.7204 11.0769C14.7798 10.9744 14.8998 10.9241 15.015 10.9552C15.1294 10.9859 15.209 11.0897 15.209 11.2081V16.6163C15.209 16.8714 15.4015 17.0917 15.6381 17.1072C15.7746 17.1145 15.9018 17.0687 15.9975 16.9733C16.0844 16.8863 16.1323 16.7706 16.1323 16.6467V13.1098C16.1323 12.9651 16.2495 12.8479 16.3942 12.8479C16.5388 12.8479 16.656 12.965 16.656 13.1098L16.6559 17.4507C16.6559 17.7052 16.863 17.9123 17.1175 17.9123C17.2412 17.9123 17.3573 17.8645 17.4444 17.7775C17.5313 17.6905 17.5792 17.5744 17.5792 17.4507V13.1098C17.5792 12.9651 17.6962 12.8479 17.8411 12.8479C17.9857 12.8479 18.103 12.9649 18.103 13.1098L18.1028 16.6061V16.6467C18.1028 16.9011 18.3099 17.1082 18.5646 17.1082C18.6881 17.1082 18.8039 17.0602 18.8914 16.9729C18.9783 16.8862 19.0262 16.7704 19.0262 16.6466V13.1096C19.0262 12.9649 19.1433 12.8477 19.2881 12.8477C19.4328 12.8477 19.55 12.9648 19.55 13.1096L19.5497 15.7794C19.5497 16.0341 19.7568 16.2412 20.0112 16.2412C20.135 16.2412 20.2508 16.1931 20.3377 16.1064C20.4249 16.0191 20.4726 15.903 20.4726 15.7794L20.4728 10.3679C20.4728 8.56316 19.1369 7.09458 17.4948 7.09458L17.4949 7.09453Z" fill="#4CAF4F"/>
<path d="M20.0112 16.7647V15.8366H23.2902L20.4976 17.5551L20.0112 16.7647ZM19.5497 16.6445H18.6216V15.0937L19.9883 15.8265L19.5497 16.6445ZM19.2612 17.3433L18.605 16.687L18.6059 16.6861L19.2612 17.3433ZM18.097 17.5084L17.1705 17.4542L17.2559 15.9936L18.5409 16.6933L18.097 17.5084ZM17.8145 18.1473L18.4711 18.8032L18.4707 18.8036L17.8145 18.1473ZM16.138 17.5082L15.6967 16.6918L16.9781 15.9992L17.0644 17.4532L16.138 17.5082ZM15.6038 17.6296L15.5443 18.5558L15.5431 18.5557L15.6038 17.6296ZM14.6853 12.1845L13.8815 11.7205L15.6134 8.7201V12.1845H14.6853ZM14.1807 13.0587L13.376 12.5962L13.3769 12.5947L14.1807 13.0587ZM12.701 13.4565L12.2396 14.2618L12.2355 14.2595L12.701 13.4565ZM12.2871 12.917L13.1834 12.6764L13.1837 12.6774L12.2871 12.917ZM12.3763 12.243L11.5731 11.7779L11.8412 11.3149H12.3763V12.243ZM14.1281 9.20847L14.9733 9.59172L14.9551 9.63191L14.9331 9.67019L14.1281 9.20847ZM14.2032 9.04021L13.3552 8.66308L13.3552 8.66307L14.2032 9.04021ZM14.2775 8.84965L15.1523 9.15953L15.1522 9.15978L14.2775 8.84965ZM20.9962 10.3678L20.0681 10.3678V10.3678H20.9962ZM20.9964 15.7793L21.9245 15.7792V15.7793H20.9964ZM20.7083 16.4762L21.3651 17.1319L21.3645 17.1325L20.7083 16.4762ZM20.0111 16.7647V17.6928H16.7322L19.5247 15.9743L20.0111 16.7647ZM17.4949 7.09453V6.16644H18.7253L18.3872 7.3495L17.4949 7.09453ZM14.7709 9.02474L15.6458 9.33466L15.645 9.33666L14.7709 9.02474ZM14.6817 9.25302L15.5296 9.63047L15.5294 9.63096L14.6817 9.25302ZM14.5579 9.50081L15.2568 10.1115L14.6497 10.8063L13.9513 10.2032L14.5579 9.50081ZM14.5543 9.49769L13.7343 9.06309L14.2796 8.03413L15.1609 8.79529L14.5543 9.49769ZM12.8296 12.505L13.6333 12.9692L13.6329 12.9698L12.8296 12.505ZM12.7927 12.7813L11.8965 13.0226L11.8957 13.0197L12.7927 12.7813ZM12.9623 13.0025L12.5 13.8073L12.4983 13.8063L12.9623 13.0025ZM13.7268 12.7972L12.9219 12.3352L12.9231 12.333L13.7268 12.7972ZM14.7204 11.0769L13.9168 10.6127L13.9173 10.6118L14.7204 11.0769ZM15.015 10.9552L14.7748 11.8517L14.7725 11.8511L15.015 10.9552ZM15.6381 17.1072L15.5891 18.0341L15.5772 18.0333L15.6381 17.1072ZM15.9975 16.9733L16.6537 17.6295L16.6531 17.6301L15.9975 16.9733ZM16.656 13.1098L17.5841 13.1098L17.5841 13.1098L16.656 13.1098ZM16.6559 17.4507L15.7278 17.4507L15.7278 17.4507L16.6559 17.4507ZM17.4444 17.7775L18.1012 18.4332L18.1 18.4344L17.4444 17.7775ZM18.103 13.1098L19.031 13.1098L19.031 13.1098L18.103 13.1098ZM18.1028 16.6061L17.1747 16.6061L17.1747 16.606L18.1028 16.6061ZM18.8914 16.9729L19.5471 17.6298L19.5465 17.6304L18.8914 16.9729ZM19.55 13.1096L20.4781 13.1096L20.4781 13.1097L19.55 13.1096ZM19.5497 15.7794L18.6216 15.7794L18.6216 15.7793L19.5497 15.7794ZM20.3377 16.1064L20.9939 16.7626L20.9933 16.7633L20.3377 16.1064ZM20.4726 15.7794L19.5445 15.7794L19.5445 15.7793L20.4726 15.7794ZM20.4728 10.3679L21.4009 10.3679L21.4009 10.3679L20.4728 10.3679ZM17.4948 7.09458V8.02268H16.2644L16.6025 6.83962L17.4948 7.09458ZM20.0112 16.7647V17.6928C19.6694 17.6928 19.3643 17.5982 19.1111 17.4624L19.5497 16.6445L19.9883 15.8265C20.0003 15.833 20.0079 15.8354 20.0109 15.8362C20.0135 15.8369 20.0132 15.8366 20.0112 15.8366V16.7647ZM19.5497 16.6445H20.4778V16.6464H19.5497H18.6216V16.6445H19.5497ZM19.5497 16.6464H20.4778C20.4778 17.1555 20.278 17.64 19.9166 18.0004L19.2612 17.3433L18.6059 16.6861C18.6125 16.6795 18.6158 16.6738 18.6177 16.6692C18.6196 16.6646 18.6216 16.6574 18.6216 16.6464H19.5497ZM19.2612 17.3433L19.9175 17.9995C19.5573 18.3597 19.0738 18.5598 18.5644 18.5598V17.6317V16.7036C18.5751 16.7036 18.5821 16.7017 18.5868 16.6997C18.5916 16.6978 18.5977 16.6943 18.605 16.687L19.2612 17.3433ZM18.5644 17.6317V18.5598C18.2182 18.5598 17.9093 18.463 17.6532 18.3235L18.097 17.5084L18.5409 16.6933C18.553 16.6999 18.5607 16.7024 18.5637 16.7032C18.5663 16.704 18.5661 16.7036 18.5644 16.7036V17.6317ZM18.097 17.5084L19.0236 17.5626C18.9968 18.0194 18.8115 18.4624 18.4711 18.8032L17.8145 18.1473L17.1579 17.4914C17.1613 17.488 17.1633 17.4849 17.165 17.4811C17.1668 17.4769 17.1697 17.4684 17.1705 17.4542L18.097 17.5084ZM17.8145 18.1473L18.4707 18.8036C18.1105 19.1638 17.6269 19.3639 17.1175 19.3639V18.4358V17.5077C17.1283 17.5077 17.1354 17.5057 17.1401 17.5038C17.1449 17.5018 17.151 17.4983 17.1582 17.4911L17.8145 18.1473ZM17.1175 18.4358V19.3639C16.0929 19.3639 15.2707 18.5597 15.2115 17.5633L16.138 17.5082L17.0644 17.4532C17.0654 17.469 17.0718 17.4828 17.0832 17.4937C17.0888 17.4991 17.0945 17.5025 17.0994 17.5045C17.1037 17.5062 17.1092 17.5077 17.1175 17.5077V18.4358ZM16.138 17.5082L16.5793 18.3247C16.2795 18.4867 15.924 18.5802 15.5443 18.5558L15.6038 17.6296L15.6633 16.7034C15.6633 16.7034 15.6653 16.7036 15.6702 16.7025C15.6755 16.7012 15.6845 16.6983 15.6967 16.6918L16.138 17.5082ZM15.6038 17.6296L15.5431 18.5557C14.5126 18.4881 13.7572 17.6118 13.7572 16.6161H14.6853H15.6134C15.6134 16.6475 15.6248 16.6716 15.6391 16.6874C15.653 16.7028 15.6624 16.7034 15.6646 16.7035L15.6038 17.6296ZM14.6853 16.6161H13.7572V12.1845H14.6853H15.6134V16.6161H14.6853ZM14.6853 12.1845L15.4891 12.6484L14.9845 13.5227L14.1807 13.0587L13.3769 12.5947L13.8815 11.7205L14.6853 12.1845ZM14.1807 13.0587L14.9853 13.5212C14.6267 14.1451 13.9592 14.5288 13.2413 14.5288V13.6007V12.6726C13.2982 12.6726 13.3503 12.641 13.376 12.5962L14.1807 13.0587ZM13.2413 13.6007V14.5288C12.8904 14.5288 12.5449 14.4368 12.2396 14.2618L12.701 13.4565L13.1624 12.6513C13.1874 12.6656 13.2148 12.6726 13.2413 12.6726V13.6007ZM12.701 13.4565L12.2355 14.2595C11.8188 14.0179 11.5155 13.6248 11.3904 13.1566L12.2871 12.917L13.1837 12.6774C13.1829 12.6743 13.1805 12.6687 13.1761 12.6628C13.1716 12.6571 13.1675 12.6542 13.1665 12.6536L12.701 13.4565ZM12.2871 12.917L11.3907 13.1576C11.2651 12.6897 11.3309 12.1963 11.5731 11.7779L12.3763 12.243L13.1794 12.708C13.1808 12.7057 13.1831 12.7005 13.1841 12.693C13.1851 12.6854 13.1842 12.6794 13.1834 12.6764L12.2871 12.917ZM12.3763 12.243V11.3149C11.921 11.4342 11.5802 11.7658 11.5777 11.7701C11.5769 11.7715 11.5756 11.7737 11.5752 11.7743C11.575 11.7747 11.5746 11.7754 11.5744 11.7756C11.5743 11.7758 11.5742 11.7761 11.5741 11.7761C11.574 11.7764 11.574 11.7763 11.5744 11.7757C11.575 11.7746 11.5761 11.7728 11.5776 11.7701C11.5807 11.7648 11.5853 11.7569 11.5913 11.7465C11.6034 11.7255 11.6211 11.6948 11.6438 11.6556C11.6891 11.5771 11.754 11.4648 11.8322 11.3294C11.9886 11.0586 12.1981 10.6958 12.4107 10.3275C12.8367 9.58965 13.2735 8.833 13.323 8.74674L14.1281 9.20847L14.9331 9.67019C14.8819 9.75954 14.4429 10.5201 14.0182 11.2556C13.8055 11.624 13.596 11.9869 13.4396 12.2577C13.3614 12.3931 13.2965 12.5055 13.2511 12.584C13.2284 12.6233 13.2106 12.6541 13.1984 12.6752C13.1924 12.6857 13.1876 12.6939 13.1844 12.6994C13.1828 12.7022 13.1815 12.7044 13.1806 12.7061C13.1801 12.7069 13.1796 12.7078 13.179 12.7088C13.1788 12.7091 13.1782 12.7101 13.1775 12.7113C13.1771 12.7121 13.1758 12.7143 13.1749 12.7158C13.1723 12.7201 12.8315 13.0517 12.3763 13.1711V12.243ZM14.1281 9.20847L13.2828 8.82521C13.293 8.80267 13.3254 8.73003 13.3552 8.66308L14.2032 9.04021L15.0512 9.41734C15.0229 9.48093 14.987 9.56145 14.9733 9.59172L14.1281 9.20847ZM14.2032 9.04021L13.3552 8.66307C13.3681 8.63407 13.3823 8.59701 13.4027 8.53952L14.2775 8.84965L15.1522 9.15978C15.127 9.23087 15.0937 9.32172 15.0512 9.41735L14.2032 9.04021ZM14.2775 8.84965L13.4026 8.53977C14.0312 6.76516 15.6134 5.64289 17.4948 5.64289V6.57099V7.49908C16.4028 7.49908 15.5194 8.12302 15.1523 9.15953L14.2775 8.84965ZM17.4948 6.57099V5.64289C20.0074 5.64289 21.9243 7.83383 21.9243 10.3678H20.9962H20.0681C20.0681 8.71457 18.8436 7.49908 17.4948 7.49908V6.57099ZM20.9962 10.3678L21.9243 10.3677L21.9245 15.7792L20.9964 15.7793L20.0683 15.7793L20.0681 10.3678L20.9962 10.3678ZM20.9964 15.7793H21.9245C21.9245 16.2882 21.7248 16.7715 21.3651 17.1319L20.7083 16.4762L20.0514 15.8206C20.0587 15.8132 20.0623 15.807 20.0643 15.8021C20.0663 15.7972 20.0683 15.7901 20.0683 15.7793H20.9964ZM20.7083 16.4762L21.3645 17.1325C21.0042 17.4928 20.5206 17.6928 20.0111 17.6928V16.7647V15.8366C20.0221 15.8366 20.0292 15.8346 20.0339 15.8327C20.0386 15.8307 20.0448 15.8272 20.052 15.82L20.7083 16.4762ZM20.0111 16.7647L19.5247 15.9743L19.5248 15.9743L20.0112 16.7647L20.4976 17.5551L20.4976 17.5551L20.0111 16.7647ZM17.4949 7.09453V8.02262C16.6124 8.02262 15.9433 8.49466 15.6458 9.33466L14.7709 9.02474L13.8961 8.71482C14.4549 7.13757 15.8222 6.16644 17.4949 6.16644V7.09453ZM14.7709 9.02474L15.645 9.33666C15.6157 9.41876 15.5777 9.52244 15.5296 9.63047L14.6817 9.25302L13.8339 8.87556C13.8523 8.83403 13.8713 8.78422 13.8968 8.71282L14.7709 9.02474ZM14.6817 9.25302L15.5294 9.63096C15.4869 9.72629 15.4513 9.80679 15.424 9.86131C15.4071 9.89516 15.3797 9.94731 15.34 10.0051C15.2998 10.0636 15.26 10.1078 15.2568 10.1115L14.5579 9.50081L13.859 8.89016C13.8612 8.88766 13.8605 8.88847 13.8594 8.88975C13.858 8.8914 13.8544 8.8956 13.8496 8.90137C13.8447 8.90735 13.8385 8.91507 13.8316 8.92424C13.8246 8.9335 13.8174 8.94335 13.8103 8.95374C13.7957 8.9749 13.7845 8.99343 13.7766 9.00745C13.7692 9.02053 13.7646 9.02959 13.7636 9.03163C13.7625 9.03373 13.7632 9.03249 13.7663 9.02574C13.7694 9.0192 13.7737 9.00978 13.7799 8.99606C13.7861 8.98247 13.7935 8.96605 13.8025 8.94575C13.8116 8.92549 13.8219 8.90228 13.8341 8.87507L14.6817 9.25302ZM14.5579 9.50081L13.9513 10.2032L13.9477 10.2001L14.5543 9.49769L15.1609 8.79529L15.1645 8.79841L14.5579 9.50081ZM14.5543 9.49769L15.3743 9.9323C15.2291 10.2064 14.8144 10.9241 13.6333 12.9692L12.8296 12.505L12.0259 12.0408C13.2236 9.96703 13.6099 9.29772 13.7343 9.06309L14.5543 9.49769ZM12.8296 12.505L13.6329 12.9698C13.7071 12.8415 13.7278 12.6867 13.6896 12.5429L12.7927 12.7813L11.8957 13.0197C11.8077 12.6884 11.8543 12.3374 12.0263 12.0402L12.8296 12.505ZM12.7927 12.7813L13.6889 12.54C13.6507 12.3982 13.5568 12.2741 13.4263 12.1988L12.9623 13.0025L12.4983 13.8063C12.2001 13.6342 11.9852 13.3521 11.8965 13.0226L12.7927 12.7813ZM12.9623 13.0025L13.4245 12.1978C13.3189 12.1371 13.2161 12.1375 13.1452 12.1566C13.0745 12.1756 12.9839 12.2272 12.9219 12.3352L13.7268 12.7972L14.5317 13.2592C14.1273 13.964 13.2029 14.2111 12.5 13.8073L12.9623 13.0025ZM13.7268 12.7972L12.9231 12.333L13.9168 10.6127L14.7204 11.0769L15.5241 11.5411L14.5305 13.2614L13.7268 12.7972ZM14.7204 11.0769L13.9173 10.6118C14.1854 10.1489 14.7326 9.91733 15.2574 10.0594L15.015 10.9552L14.7725 11.8511C15.0671 11.9308 15.3742 11.7999 15.5235 11.5421L14.7204 11.0769ZM15.015 10.9552L15.2551 10.0588C15.7758 10.1983 16.1371 10.6701 16.1371 11.2081H15.209H14.2809C14.2809 11.5093 14.4831 11.7736 14.7748 11.8517L15.015 10.9552ZM15.209 11.2081H16.1371V16.6163H15.209H14.2809V11.2081H15.209ZM15.209 16.6163H16.1371C16.1371 16.5105 16.0979 16.4144 16.0336 16.3408C15.9693 16.2673 15.856 16.1915 15.6991 16.1811L15.6381 17.1072L15.5772 18.0333C14.7959 17.9819 14.2809 17.3013 14.2809 16.6163H15.209ZM15.6381 17.1072L15.6872 16.1804C15.5775 16.1746 15.4436 16.2148 15.3418 16.3164L15.9975 16.9733L16.6531 17.6301C16.3601 17.9226 15.9717 18.0543 15.5891 18.034L15.6381 17.1072ZM15.9975 16.9733L15.3412 16.317C15.2531 16.4051 15.2042 16.5257 15.2042 16.6467H16.1323H17.0603C17.0603 17.0154 16.9156 17.3676 16.6537 17.6295L15.9975 16.9733ZM16.1323 16.6467H15.2042V13.1098H16.1323H17.0603V16.6467H16.1323ZM16.1323 13.1098H15.2042C15.2042 12.4525 15.7369 11.9198 16.3942 11.9198V12.8479V13.776C16.7621 13.776 17.0603 13.4777 17.0603 13.1098H16.1323ZM16.3942 12.8479V11.9198C17.051 11.9198 17.5841 12.452 17.5841 13.1098H16.656H15.728C15.728 13.4779 16.0266 13.776 16.3942 13.776V12.8479ZM16.656 13.1098L17.5841 13.1098L17.584 17.4507L16.6559 17.4507L15.7278 17.4507L15.728 13.1097L16.656 13.1098ZM16.6559 17.4507H17.584C17.584 17.1926 17.3756 16.9842 17.1175 16.9842V17.9123V18.8404C16.3504 18.8404 15.7278 18.2178 15.7278 17.4507H16.6559ZM17.1175 17.9123V16.9842C16.9967 16.9842 16.8766 17.0329 16.7887 17.1206L17.4444 17.7775L18.1 18.4344C17.8379 18.696 17.4856 18.8404 17.1175 18.8404V17.9123ZM17.4444 17.7775L16.7875 17.1219C16.6997 17.2098 16.6511 17.3299 16.6511 17.4507H17.5792H18.5073C18.5073 17.8188 18.3628 18.1711 18.1012 18.4332L17.4444 17.7775ZM17.5792 17.4507H16.6511V13.1098H17.5792H18.5073V17.4507H17.5792ZM17.5792 13.1098H16.6511C16.6511 12.4529 17.1833 11.9198 17.8411 11.9198V12.8479V13.7759C18.2092 13.7759 18.5073 13.4773 18.5073 13.1098H17.5792ZM17.8411 12.8479V11.9198C18.4979 11.9198 19.031 12.452 19.031 13.1098H18.103H17.1749C17.1749 13.4779 17.4735 13.7759 17.8411 13.7759V12.8479ZM18.103 13.1098L19.031 13.1098L19.0309 16.6061L18.1028 16.6061L17.1747 16.606L17.1749 13.1097L18.103 13.1098ZM18.1028 16.6061H19.0309V16.6467H18.1028H17.1747V16.6061H18.1028ZM18.1028 16.6467H19.0309C19.0309 16.3881 18.822 16.1801 18.5646 16.1801V17.1082V18.0363C17.7978 18.0363 17.1747 17.4141 17.1747 16.6467H18.1028ZM18.5646 17.1082V16.1801C18.4413 16.1801 18.3219 16.2303 18.2364 16.3154L18.8914 16.9729L19.5465 17.6304C19.2858 17.89 18.9349 18.0363 18.5646 18.0363V17.1082ZM18.8914 16.9729L18.2358 16.316C18.147 16.4046 18.0981 16.5257 18.0981 16.6466H19.0262H19.9543C19.9543 17.015 19.8097 17.3677 19.5471 17.6298L18.8914 16.9729ZM19.0262 16.6466H18.0981V13.1096H19.0262H19.9543V16.6466H19.0262ZM19.0262 13.1096H18.0981C18.0981 12.4527 18.6304 11.9196 19.2881 11.9196V12.8477V13.7758C19.6563 13.7758 19.9543 13.4771 19.9543 13.1096H19.0262ZM19.2881 12.8477V11.9196C19.945 11.9196 20.4781 12.4518 20.4781 13.1096H19.55H18.6219C18.6219 13.4777 18.9206 13.7758 19.2881 13.7758V12.8477ZM19.55 13.1096L20.4781 13.1097L20.4778 15.7795L19.5497 15.7794L18.6216 15.7793L18.6219 13.1095L19.55 13.1096ZM19.5497 15.7794H20.4778C20.4778 15.5219 20.2698 15.3131 20.0112 15.3131V16.2412V17.1693C19.2438 17.1693 18.6216 16.5462 18.6216 15.7794H19.5497ZM20.0112 16.2412V15.3131C19.8894 15.3131 19.7693 15.3624 19.682 15.4495L20.3377 16.1064L20.9933 16.7633C20.7322 17.0239 20.3805 17.1693 20.0112 17.1693V16.2412ZM20.3377 16.1064L19.6814 15.4501C19.593 15.5385 19.5445 15.6591 19.5445 15.7794H20.4726H21.4007C21.4007 16.1469 21.2568 16.4998 20.9939 16.7626L20.3377 16.1064ZM20.4726 15.7794L19.5445 15.7793L19.5447 10.3679L20.4728 10.3679L21.4009 10.3679L21.4007 15.7794L20.4726 15.7794ZM20.4728 10.3679H19.5447C19.5447 8.99115 18.5437 8.02268 17.4948 8.02268V7.09458V6.16649C19.7302 6.16649 21.4009 8.13517 21.4009 10.3679H20.4728ZM17.4948 7.09458L16.6025 6.83962L16.6025 6.83956L17.4949 7.09453L18.3872 7.3495L18.3872 7.34955L17.4948 7.09458Z" fill="#4CAF4F" mask="url(#path-1-inside-1_211_2338)"/>
<path d="M8.63095 18.5526L8.57919 18.5253C8.56692 18.5474 8.53247 18.6093 8.48154 18.701C8.49963 18.7101 8.51795 18.7176 8.53622 18.7245C8.56737 18.6684 8.5986 18.6109 8.63095 18.5526Z" fill="#4CAF4F" stroke="#4CAF4F" stroke-width="0.928093"/>
<mask id="path-4-inside-2_211_2338" fill="white">
<path d="M27.8812 25.8226C27.3979 26.6287 26.6031 27.1803 25.6429 27.3765C24.6913 27.5705 23.6904 27.3916 22.8242 26.8722L18.1835 24.0883C17.9577 23.9528 17.798 23.7377 17.734 23.4821C17.6705 23.2271 17.7102 22.9623 17.8455 22.7366C17.93 22.5956 18.0484 22.4844 18.1856 22.4022L18.1843 22.4014C17.9585 22.266 17.7988 22.0508 17.7352 21.7956C17.6712 21.5405 17.7109 21.2754 17.8463 21.0495C17.9336 20.9043 18.0531 20.7909 18.1896 20.7103C17.9915 20.5741 17.8488 20.3761 17.7901 20.1413C17.7261 19.8859 17.7658 19.6211 17.9013 19.3954C18.0366 19.1696 18.2519 19.01 18.5071 18.9463C18.5868 18.9262 18.6676 18.9164 18.7477 18.9164C18.9048 18.9166 19.0589 18.9564 19.2006 19.0305C19.2093 18.847 19.2639 18.6668 19.3712 18.5122C19.6652 18.0879 20.2543 17.9705 20.7131 18.2458L24.5133 20.5253L24.0235 19.643C23.8356 19.3062 23.8424 18.8906 24.0417 18.5584C24.1388 18.3967 24.2775 18.2624 24.4433 18.1694C24.5796 18.094 24.7272 18.0582 24.8728 18.0582C25.1855 18.0584 25.4893 18.2233 25.6509 18.5154C26.2144 19.5307 27.2777 21.4455 27.3525 21.5792C27.3684 21.6023 27.4165 21.6712 27.4576 21.7297C27.4968 21.7853 27.5391 21.8384 27.5829 21.8912C28.5318 23.0415 28.6462 24.5477 27.8812 25.8227L27.8812 25.8226ZM27.1789 22.225C27.1267 22.1619 27.0756 22.0974 27.029 22.031C26.8873 21.8299 26.8837 21.8247 26.873 21.772C26.7074 21.498 26.3033 20.7706 25.1926 18.7695C25.0952 18.5938 24.8738 18.5297 24.6975 18.6271C24.6108 18.6757 24.5411 18.7434 24.4902 18.8282C24.3873 18.9999 24.3833 19.2144 24.4806 19.3886L25.4445 21.1254C25.5021 21.2291 25.4829 21.3583 25.3978 21.4406C25.3128 21.5231 25.1829 21.5375 25.0809 21.4768L20.4436 18.6949C20.225 18.5638 19.9369 18.6152 19.8017 18.8103C19.724 18.9225 19.6992 19.0563 19.7317 19.187C19.7616 19.3064 19.8365 19.4071 19.9426 19.4707C19.9429 19.4709 19.9431 19.4712 19.9434 19.4714L22.9755 21.2904C23.0995 21.3648 23.1397 21.5255 23.0652 21.6497C22.9907 21.7735 22.8302 21.814 22.7059 21.7394L18.9834 19.5063C18.8778 19.443 18.7535 19.4243 18.6341 19.4543C18.5144 19.4842 18.4137 19.559 18.3503 19.6651C18.2866 19.7708 18.2683 19.895 18.2978 20.0144C18.3276 20.1337 18.4026 20.2346 18.5085 20.2982L19.2329 20.7327L22.2308 22.5313C22.3548 22.6058 22.395 22.7665 22.3205 22.8906C22.2461 23.0145 22.0855 23.0548 21.9612 22.9803L18.9285 21.1608C18.7104 21.0296 18.4263 21.1008 18.2952 21.3193C18.2315 21.4252 18.2132 21.5493 18.2427 21.6687C18.2725 21.7881 18.3475 21.8888 18.4536 21.9526L19.1971 22.3987L21.4863 23.7721C21.6102 23.8465 21.6504 24.0073 21.576 24.1314C21.5015 24.2552 21.341 24.2959 21.2167 24.2211L18.9275 22.8477C18.8219 22.7844 18.6981 22.7657 18.578 22.7957C18.4587 22.8255 18.3576 22.9003 18.2942 23.0061C18.2307 23.112 18.2122 23.2363 18.2417 23.3555C18.2715 23.4749 18.3465 23.5756 18.4526 23.6394L23.0933 26.4233C23.8464 26.8751 24.7148 27.0316 25.5378 26.8636C26.3521 26.6974 27.0249 26.2321 27.4319 25.5535C28.0897 24.4577 27.995 23.2133 27.1792 22.225L27.1789 22.225Z"/>
</mask>
<path d="M27.8812 25.8226C27.3979 26.6287 26.6031 27.1803 25.6429 27.3765C24.6913 27.5705 23.6904 27.3916 22.8242 26.8722L18.1835 24.0883C17.9577 23.9528 17.798 23.7377 17.734 23.4821C17.6705 23.2271 17.7102 22.9623 17.8455 22.7366C17.93 22.5956 18.0484 22.4844 18.1856 22.4022L18.1843 22.4014C17.9585 22.266 17.7988 22.0508 17.7352 21.7956C17.6712 21.5405 17.7109 21.2754 17.8463 21.0495C17.9336 20.9043 18.0531 20.7909 18.1896 20.7103C17.9915 20.5741 17.8488 20.3761 17.7901 20.1413C17.7261 19.8859 17.7658 19.6211 17.9013 19.3954C18.0366 19.1696 18.2519 19.01 18.5071 18.9463C18.5868 18.9262 18.6676 18.9164 18.7477 18.9164C18.9048 18.9166 19.0589 18.9564 19.2006 19.0305C19.2093 18.847 19.2639 18.6668 19.3712 18.5122C19.6652 18.0879 20.2543 17.9705 20.7131 18.2458L24.5133 20.5253L24.0235 19.643C23.8356 19.3062 23.8424 18.8906 24.0417 18.5584C24.1388 18.3967 24.2775 18.2624 24.4433 18.1694C24.5796 18.094 24.7272 18.0582 24.8728 18.0582C25.1855 18.0584 25.4893 18.2233 25.6509 18.5154C26.2144 19.5307 27.2777 21.4455 27.3525 21.5792C27.3684 21.6023 27.4165 21.6712 27.4576 21.7297C27.4968 21.7853 27.5391 21.8384 27.5829 21.8912C28.5318 23.0415 28.6462 24.5477 27.8812 25.8227L27.8812 25.8226ZM27.1789 22.225C27.1267 22.1619 27.0756 22.0974 27.029 22.031C26.8873 21.8299 26.8837 21.8247 26.873 21.772C26.7074 21.498 26.3033 20.7706 25.1926 18.7695C25.0952 18.5938 24.8738 18.5297 24.6975 18.6271C24.6108 18.6757 24.5411 18.7434 24.4902 18.8282C24.3873 18.9999 24.3833 19.2144 24.4806 19.3886L25.4445 21.1254C25.5021 21.2291 25.4829 21.3583 25.3978 21.4406C25.3128 21.5231 25.1829 21.5375 25.0809 21.4768L20.4436 18.6949C20.225 18.5638 19.9369 18.6152 19.8017 18.8103C19.724 18.9225 19.6992 19.0563 19.7317 19.187C19.7616 19.3064 19.8365 19.4071 19.9426 19.4707C19.9429 19.4709 19.9431 19.4712 19.9434 19.4714L22.9755 21.2904C23.0995 21.3648 23.1397 21.5255 23.0652 21.6497C22.9907 21.7735 22.8302 21.814 22.7059 21.7394L18.9834 19.5063C18.8778 19.443 18.7535 19.4243 18.6341 19.4543C18.5144 19.4842 18.4137 19.559 18.3503 19.6651C18.2866 19.7708 18.2683 19.895 18.2978 20.0144C18.3276 20.1337 18.4026 20.2346 18.5085 20.2982L19.2329 20.7327L22.2308 22.5313C22.3548 22.6058 22.395 22.7665 22.3205 22.8906C22.2461 23.0145 22.0855 23.0548 21.9612 22.9803L18.9285 21.1608C18.7104 21.0296 18.4263 21.1008 18.2952 21.3193C18.2315 21.4252 18.2132 21.5493 18.2427 21.6687C18.2725 21.7881 18.3475 21.8888 18.4536 21.9526L19.1971 22.3987L21.4863 23.7721C21.6102 23.8465 21.6504 24.0073 21.576 24.1314C21.5015 24.2552 21.341 24.2959 21.2167 24.2211L18.9275 22.8477C18.8219 22.7844 18.6981 22.7657 18.578 22.7957C18.4587 22.8255 18.3576 22.9003 18.2942 23.0061C18.2307 23.112 18.2122 23.2363 18.2417 23.3555C18.2715 23.4749 18.3465 23.5756 18.4526 23.6394L23.0933 26.4233C23.8464 26.8751 24.7148 27.0316 25.5378 26.8636C26.3521 26.6974 27.0249 26.2321 27.4319 25.5535C28.0897 24.4577 27.995 23.2133 27.1792 22.225L27.1789 22.225Z" fill="#4CAF4F"/>
<path d="M27.8812 25.8226L27.5818 24.9442L29.9804 24.1265L28.6772 26.2999L27.8812 25.8226ZM25.6429 27.3765L25.8287 28.2858L25.8283 28.2859L25.6429 27.3765ZM22.8242 26.8722L22.3469 27.6682L22.3468 27.6681L22.8242 26.8722ZM18.1835 24.0883L18.6609 23.2924L18.6609 23.2924L18.1835 24.0883ZM17.734 23.4821L16.8337 23.7075L16.8334 23.7063L17.734 23.4821ZM17.8455 22.7366L18.6418 23.2134L18.6415 23.2139L17.8455 22.7366ZM18.1856 22.4022L18.6775 21.6152L19.9642 22.4194L18.6623 23.1986L18.1856 22.4022ZM18.1843 22.4014L18.6617 21.6055L18.669 21.6099L18.6762 21.6144L18.1843 22.4014ZM17.7352 21.7956L18.6354 21.57L18.6357 21.5711L17.7352 21.7956ZM17.8463 21.0495L17.0503 20.5723L17.0509 20.5713L17.8463 21.0495ZM18.1896 20.7103L18.7156 19.9457L19.9142 20.7702L18.6613 21.5096L18.1896 20.7103ZM17.7901 20.1413L18.6904 19.9158L18.6905 19.9162L17.7901 20.1413ZM17.9013 19.3954L18.6974 19.8724L18.697 19.8731L17.9013 19.3954ZM18.5071 18.9463L18.7331 19.8464L18.7321 19.8466L18.5071 18.9463ZM18.7477 18.9164L18.7477 17.9883L18.7486 17.9883L18.7477 18.9164ZM19.2006 19.0305L20.1277 19.0745L20.0589 20.527L18.7704 19.8529L19.2006 19.0305ZM19.3712 18.5122L20.1339 19.0408L20.1338 19.041L19.3712 18.5122ZM20.7131 18.2458L20.2357 19.0417L20.2356 19.0417L20.7131 18.2458ZM24.5133 20.5253L25.3248 20.0748L27.0058 23.1026L24.0359 21.3212L24.5133 20.5253ZM24.0235 19.643L24.834 19.1908L24.8349 19.1925L24.0235 19.643ZM24.0417 18.5584L23.2458 18.0811L23.246 18.0806L24.0417 18.5584ZM24.4433 18.1694L23.9893 17.3599L23.9938 17.3574L24.4433 18.1694ZM24.8728 18.0582L24.8728 17.1301L24.8733 17.1301L24.8728 18.0582ZM25.6509 18.5154L24.8394 18.9658L24.8389 18.9649L25.6509 18.5154ZM27.3525 21.5792L26.5879 22.1052L26.5635 22.0698L26.5425 22.0322L27.3525 21.5792ZM27.4576 21.7297L26.6991 22.2645L26.6984 22.2635L27.4576 21.7297ZM27.5829 21.8912L28.2974 21.2988L28.2988 21.3006L27.5829 21.8912ZM27.8812 25.8227L28.1807 26.7011L25.7808 27.5192L27.0854 25.3451L27.8812 25.8227ZM27.1789 22.225L27.2708 23.1485L26.7784 23.1975L26.4633 22.816L27.1789 22.225ZM27.029 22.031L27.7876 21.4964L27.7889 21.4981L27.029 22.031ZM26.873 21.772L27.6673 21.292L27.7507 21.4299L27.7827 21.5878L26.873 21.772ZM25.1926 18.7695L24.3812 19.2199L24.381 19.2196L25.1926 18.7695ZM24.6975 18.6271L24.2443 17.8172L24.2487 17.8148L24.6975 18.6271ZM24.4902 18.8282L25.2862 19.3054L25.2861 19.3056L24.4902 18.8282ZM24.4806 19.3886L25.2909 18.9361L25.2921 18.9382L24.4806 19.3886ZM25.4445 21.1254L24.6332 21.576L24.633 21.5758L25.4445 21.1254ZM25.3978 21.4406L24.7512 20.7748L24.7525 20.7735L25.3978 21.4406ZM25.0809 21.4768L24.6065 22.2745L24.6035 22.2727L25.0809 21.4768ZM20.4436 18.6949L20.9208 17.8988L20.921 17.899L20.4436 18.6949ZM19.8017 18.8103L20.5647 19.3387L20.5646 19.3389L19.8017 18.8103ZM19.7317 19.187L18.8313 19.4121L18.831 19.4108L19.7317 19.187ZM19.9426 19.4707L19.5275 20.3008L19.4957 20.2849L19.4653 20.2667L19.9426 19.4707ZM19.9434 19.4714L20.3586 18.6413L20.3904 18.6572L20.4209 18.6755L19.9434 19.4714ZM22.9755 21.2904L23.4529 20.4945L23.4533 20.4947L22.9755 21.2904ZM23.0652 21.6497L23.8611 22.127L23.8606 22.1279L23.0652 21.6497ZM22.7059 21.7394L23.1833 20.9435L23.1836 20.9436L22.7059 21.7394ZM18.9834 19.5063L19.4606 18.7103L19.4609 18.7104L18.9834 19.5063ZM18.6341 19.4543L18.8604 20.3544L18.8586 20.3548L18.6341 19.4543ZM18.3503 19.6651L19.1467 20.1415L19.1455 20.1435L18.3503 19.6651ZM18.2978 20.0144L17.3974 20.2394L17.3968 20.2371L18.2978 20.0144ZM18.5085 20.2982L18.0312 21.0941L18.0306 21.0938L18.5085 20.2982ZM19.2329 20.7327L19.7102 19.9367L19.7103 19.9368L19.2329 20.7327ZM22.2308 22.5313L22.7083 21.7355L22.7086 21.7357L22.2308 22.5313ZM22.3205 22.8906L23.1164 23.368L23.1159 23.3689L22.3205 22.8906ZM21.9612 22.9803L21.4843 23.7765L21.4837 23.7762L21.9612 22.9803ZM18.9285 21.1608L18.451 21.9567L18.4501 21.9561L18.9285 21.1608ZM18.2952 21.3193L19.0908 21.7971L19.0908 21.7971L18.2952 21.3193ZM18.2427 21.6687L17.3423 21.8938L17.3417 21.8915L18.2427 21.6687ZM18.4536 21.9526L17.9761 22.7485L17.9753 22.748L18.4536 21.9526ZM19.1971 22.3987L19.6746 21.6028L19.6746 21.6028L19.1971 22.3987ZM21.4863 23.7721L21.9638 22.9763L21.9641 22.9764L21.4863 23.7721ZM21.576 24.1314L22.3719 24.6088L22.3713 24.6097L21.576 24.1314ZM21.2167 24.2211L21.6942 23.4253L21.6951 23.4258L21.2167 24.2211ZM18.9275 22.8477L19.4046 22.0516L19.405 22.0518L18.9275 22.8477ZM18.578 22.7957L18.3529 21.8953L18.353 21.8953L18.578 22.7957ZM18.2942 23.0061L17.498 22.5291L17.4983 22.5286L18.2942 23.0061ZM18.2417 23.3555L17.3413 23.5806L17.3408 23.5786L18.2417 23.3555ZM18.4526 23.6394L17.9752 24.4353L17.9744 24.4348L18.4526 23.6394ZM23.0933 26.4233L23.5707 25.6275L23.5708 25.6275L23.0933 26.4233ZM25.5378 26.8636L25.7235 27.773L25.7233 27.773L25.5378 26.8636ZM27.4319 25.5535L26.636 25.0761L26.6361 25.0759L27.4319 25.5535ZM27.1792 22.225L27.0872 21.3014L27.5798 21.2524L27.8949 21.6341L27.1792 22.225ZM27.8812 25.8226L28.6772 26.2999C28.0537 27.3398 27.0314 28.0401 25.8287 28.2858L25.6429 27.3765L25.4572 26.4672C26.1748 26.3206 26.7422 25.9175 27.0853 25.3454L27.8812 25.8226ZM25.6429 27.3765L25.8283 28.2859C24.6397 28.5282 23.4035 28.3017 22.3469 27.6682L22.8242 26.8722L23.3015 26.0762C23.9773 26.4815 24.7428 26.6128 25.4575 26.4671L25.6429 27.3765ZM22.8242 26.8722L22.3468 27.6681L17.7061 24.8841L18.1835 24.0883L18.6609 23.2924L23.3016 26.0763L22.8242 26.8722ZM18.1835 24.0883L17.7061 24.8842C17.2697 24.6224 16.9575 24.2022 16.8337 23.7075L17.734 23.4821L18.6343 23.2568C18.6368 23.2669 18.6404 23.2731 18.6435 23.2773C18.6466 23.2815 18.6517 23.2869 18.6609 23.2924L18.1835 24.0883ZM17.734 23.4821L16.8334 23.7063C16.7104 23.2123 16.7882 22.6952 17.0495 22.2594L17.8455 22.7366L18.6415 23.2139C18.636 23.2231 18.6339 23.2304 18.6331 23.2357C18.6323 23.2411 18.6322 23.2482 18.6346 23.258L17.734 23.4821ZM17.8455 22.7366L17.0493 22.2598C17.2214 21.9724 17.4565 21.757 17.709 21.6059L18.1856 22.4022L18.6623 23.1986C18.651 23.2054 18.645 23.2106 18.6426 23.213C18.6404 23.2151 18.6407 23.2152 18.6418 23.2134L17.8455 22.7366ZM18.1856 22.4022L17.6938 23.1893L17.6924 23.1884L18.1843 22.4014L18.6762 21.6144L18.6775 21.6152L18.1856 22.4022ZM18.1843 22.4014L17.7069 23.1973C17.2707 22.9356 16.9581 22.5154 16.8346 22.0201L17.7352 21.7956L18.6357 21.5711C18.638 21.5805 18.6413 21.5865 18.6444 21.5905C18.6474 21.5946 18.6525 21.6 18.6617 21.6055L18.1843 22.4014ZM17.7352 21.7956L16.8349 22.0213C16.7108 21.5261 16.7889 21.0084 17.0503 20.5723L17.8463 21.0495L18.6424 21.5267C18.6367 21.5361 18.6347 21.5434 18.6339 21.5485C18.6331 21.5537 18.633 21.5605 18.6354 21.57L17.7352 21.7956ZM17.8463 21.0495L17.0509 20.5713C17.2223 20.2863 17.4564 20.0654 17.7179 19.911L18.1896 20.7103L18.6613 21.5096C18.6552 21.5132 18.6511 21.5165 18.6484 21.5192C18.6459 21.5217 18.6438 21.5243 18.6418 21.5276L17.8463 21.0495ZM18.1896 20.7103L17.6636 21.475C17.2887 21.2171 17.006 20.8317 16.8897 20.3664L17.7901 20.1413L18.6905 19.9162C18.6916 19.9206 18.6931 19.9237 18.6954 19.9271C18.6981 19.9308 18.7039 19.9376 18.7156 19.9457L18.1896 20.7103ZM17.7901 20.1413L16.8898 20.3668C16.7658 19.8717 16.8437 19.354 17.1056 18.9178L17.9013 19.3954L18.697 19.8731C18.6915 19.8823 18.6896 19.8893 18.6888 19.8942C18.6881 19.8992 18.6879 19.906 18.6904 19.9158L17.7901 20.1413ZM17.9013 19.3954L17.1052 18.9184C17.3671 18.4812 17.7879 18.1694 18.282 18.0459L18.5071 18.9463L18.7321 19.8466C18.7222 19.8491 18.7161 19.8526 18.7119 19.8556C18.7078 19.8587 18.7027 19.8636 18.6974 19.8724L17.9013 19.3954ZM18.5071 18.9463L18.2811 18.0461C18.4349 18.0075 18.5916 17.9883 18.7477 17.9883V18.9164V19.8445C18.7437 19.8445 18.7387 19.845 18.7331 19.8464L18.5071 18.9463ZM18.7477 18.9164L18.7486 17.9883C19.0639 17.9886 19.3646 18.0689 19.6308 18.2082L19.2006 19.0305L18.7704 19.8529C18.7615 19.8483 18.7552 19.8462 18.7517 19.8453C18.7483 19.8445 18.7468 19.8445 18.7467 19.8445L18.7477 18.9164ZM19.2006 19.0305L18.2736 18.9866C18.2895 18.6491 18.3913 18.2965 18.6085 17.9833L19.3712 18.5122L20.1338 19.041C20.1365 19.0371 20.1291 19.045 20.1277 19.0745L19.2006 19.0305ZM19.3712 18.5122L18.6084 17.9835C19.1962 17.1353 20.3359 16.9372 21.1906 17.45L20.7131 18.2458L20.2356 19.0417C20.2086 19.0254 20.182 19.0228 20.1612 19.0269C20.1409 19.031 20.1353 19.0389 20.1339 19.0408L19.3712 18.5122ZM20.7131 18.2458L21.1905 17.4499L24.9907 19.7294L24.5133 20.5253L24.0359 21.3212L20.2357 19.0417L20.7131 18.2458ZM24.5133 20.5253L23.7019 20.9758L23.2121 20.0935L24.0235 19.643L24.8349 19.1925L25.3248 20.0748L24.5133 20.5253ZM24.0235 19.643L23.213 20.0952C22.8625 19.4669 22.8764 18.6969 23.2458 18.0811L24.0417 18.5584L24.8376 19.0357C24.8084 19.0844 24.8087 19.1455 24.834 19.1908L24.0235 19.643ZM24.0417 18.5584L23.246 18.0806C23.427 17.7792 23.6841 17.5311 23.9893 17.3599L24.4433 18.1694L24.8973 18.9789C24.8709 18.9937 24.8506 19.0142 24.8374 19.0361L24.0417 18.5584ZM24.4433 18.1694L23.9938 17.3574C24.2715 17.2037 24.5744 17.1301 24.8728 17.1301V18.0582V18.9863C24.876 18.9863 24.8797 18.9859 24.8836 18.9849C24.8876 18.9839 24.8908 18.9825 24.8928 18.9814L24.4433 18.1694ZM24.8728 18.0582L24.8733 17.1301C25.5075 17.1304 26.1303 17.465 26.4629 18.066L25.6509 18.5154L24.8389 18.9649C24.8404 18.9675 24.8429 18.971 24.8463 18.9744C24.8495 18.9777 24.8528 18.9802 24.8558 18.9819C24.8611 18.9849 24.8663 18.9863 24.8723 18.9863L24.8728 18.0582ZM25.6509 18.5154L26.4624 18.0651C27.0266 19.0816 28.0887 20.9942 28.1625 21.1261L27.3525 21.5792L26.5425 22.0322C26.4668 21.8968 25.4022 19.9799 24.8394 18.9658L25.6509 18.5154ZM27.3525 21.5792L28.1171 21.0531C28.1302 21.0722 28.1761 21.1379 28.2168 21.1959L27.4576 21.7297L26.6984 22.2635C26.6569 22.2044 26.6066 22.1324 26.5879 22.1052L27.3525 21.5792ZM27.4576 21.7297L28.2161 21.1949C28.2353 21.2221 28.2604 21.2543 28.2974 21.2989L27.5829 21.8912L26.8685 22.4836C26.8179 22.4226 26.7583 22.3485 26.6991 22.2645L27.4576 21.7297ZM27.5829 21.8912L28.2988 21.3006C29.4968 22.7528 29.6452 24.6868 28.677 26.3002L27.8812 25.8227L27.0854 25.3451C27.6473 24.4087 27.5668 23.3302 26.867 22.4818L27.5829 21.8912ZM27.8812 25.8227L27.5817 24.9442L27.5818 24.9442L27.8812 25.8226L28.1807 26.7011L28.1807 26.7011L27.8812 25.8227ZM27.1789 22.225L26.4633 22.816C26.4047 22.745 26.336 22.6592 26.2691 22.5639L27.029 22.031L27.7889 21.4981C27.8152 21.5356 27.8488 21.5787 27.8944 21.6339L27.1789 22.225ZM27.029 22.031L26.2704 22.5656C26.2119 22.4827 26.1491 22.3947 26.1074 22.3257C26.0796 22.2795 26.0422 22.2121 26.0107 22.1262C25.98 22.0426 25.9664 21.971 25.9634 21.9562L26.873 21.772L27.7827 21.5878C27.785 21.5994 27.7758 21.5482 27.7532 21.4866C27.7298 21.4228 27.7042 21.3792 27.6963 21.366C27.6925 21.3598 27.6911 21.3578 27.694 21.3622C27.6968 21.3664 27.7017 21.3737 27.7101 21.3858C27.7274 21.4108 27.7512 21.4446 27.7876 21.4964L27.029 22.031ZM26.873 21.772L26.0788 22.2521C25.9014 21.9588 25.4841 21.207 24.3812 19.2199L25.1926 18.7695L26.0041 18.3191C27.1226 20.3341 27.5134 21.0373 27.6673 21.292L26.873 21.772ZM25.1926 18.7695L24.381 19.2196C24.5313 19.4906 24.8734 19.5903 25.1464 19.4395L24.6975 18.6271L24.2487 17.8148C24.8742 17.4691 25.6591 17.6971 26.0042 18.3193L25.1926 18.7695ZM24.6975 18.6271L25.1507 19.4371C25.2053 19.4065 25.2538 19.3596 25.2862 19.3054L24.4902 18.8282L23.6943 18.3509C23.8284 18.1272 24.0163 17.9448 24.2444 17.8172L24.6975 18.6271ZM24.4902 18.8282L25.2861 19.3056C25.3526 19.1948 25.3571 19.0547 25.2909 18.9361L24.4806 19.3886L23.6702 19.841C23.4095 19.3741 23.4219 18.805 23.6943 18.3508L24.4902 18.8282ZM24.4806 19.3886L25.2921 18.9382L26.256 20.675L25.4445 21.1254L24.633 21.5758L23.6691 19.8389L24.4806 19.3886ZM25.4445 21.1254L26.2559 20.6748C26.5172 21.1453 26.4304 21.733 26.043 22.1077L25.3978 21.4406L24.7525 20.7735C24.5354 20.9835 24.487 21.3128 24.6332 21.576L25.4445 21.1254ZM25.3978 21.4406L26.0443 22.1064C25.6539 22.4856 25.0635 22.5464 24.6065 22.2745L25.0809 21.4768L25.5554 20.6792C25.3024 20.5287 24.9718 20.5606 24.7512 20.7748L25.3978 21.4406ZM25.0809 21.4768L24.6035 22.2727L19.9662 19.4907L20.4436 18.6949L20.921 17.899L25.5584 20.681L25.0809 21.4768ZM20.4436 18.6949L19.9665 19.4909C20.057 19.5452 20.1593 19.561 20.2552 19.5438C20.3511 19.5266 20.4749 19.4684 20.5647 19.3387L19.8017 18.8103L19.0387 18.2819C19.4855 17.6368 20.3348 17.5476 20.9208 17.8988L20.4436 18.6949ZM19.8017 18.8103L20.5646 19.3389C20.637 19.2344 20.665 19.0946 20.6324 18.9633L19.7317 19.187L18.831 19.4108C18.7334 19.018 18.811 18.6106 19.0389 18.2817L19.8017 18.8103ZM19.7317 19.187L20.6321 18.9619C20.6017 18.8404 20.5231 18.7367 20.4199 18.6748L19.9426 19.4707L19.4653 20.2667C19.1499 20.0775 18.9214 19.7724 18.8313 19.4121L19.7317 19.187ZM19.9426 19.4707L20.3577 18.6406C20.4416 18.6826 20.5033 18.7293 20.5423 18.7624C20.5615 18.7786 20.5764 18.7925 20.5853 18.8011C20.5899 18.8055 20.5936 18.8091 20.5958 18.8113C20.5969 18.8124 20.5978 18.8133 20.5984 18.8139C20.5986 18.8141 20.5989 18.8144 20.599 18.8145C20.5991 18.8146 20.5991 18.8146 20.5992 18.8147C20.5992 18.8147 20.5992 18.8147 20.5992 18.8147C20.5992 18.8147 20.5992 18.8147 20.5992 18.8147C20.5992 18.8147 20.5992 18.8147 20.5992 18.8147C20.5995 18.815 20.5978 18.8133 20.5959 18.8114C20.5937 18.8092 20.5901 18.8057 20.5855 18.8013C20.5766 18.7928 20.5618 18.7789 20.5427 18.7627C20.5038 18.7298 20.4422 18.6831 20.3586 18.6413L19.9434 19.4714L19.5283 20.3014C19.4444 20.2595 19.3828 20.2128 19.3437 20.1797C19.3245 20.1635 19.3097 20.1495 19.3007 20.1409C19.2961 20.1366 19.2925 20.133 19.2903 20.1308C19.2891 20.1297 19.2882 20.1288 19.2877 20.1282C19.2874 20.1279 19.2872 20.1277 19.287 20.1276C19.2869 20.1275 19.2869 20.1274 19.2868 20.1274C19.2868 20.1274 19.2868 20.1274 19.2868 20.1274C19.2868 20.1273 19.2868 20.1273 19.2868 20.1273C19.2868 20.1273 19.2868 20.1273 19.2868 20.1273C19.2865 20.127 19.2882 20.1287 19.2902 20.1307C19.2923 20.1329 19.296 20.1364 19.3005 20.1408C19.3094 20.1493 19.3242 20.1632 19.3433 20.1794C19.3822 20.2123 19.4438 20.2589 19.5275 20.3008L19.9426 19.4707ZM19.9434 19.4714L20.4209 18.6755L23.4529 20.4945L22.9755 21.2904L22.498 22.0862L19.466 20.2672L19.9434 19.4714ZM22.9755 21.2904L23.4533 20.4947C24.0167 20.833 24.199 21.5637 23.8611 22.127L23.0652 21.6497L22.2693 21.1723C22.0803 21.4874 22.1822 21.8966 22.4977 22.086L22.9755 21.2904ZM23.0652 21.6497L23.8606 22.1279C23.5231 22.6892 22.7933 22.8743 22.2282 22.5351L22.7059 21.7394L23.1836 20.9436C22.8671 20.7537 22.4584 20.8577 22.2698 21.1714L23.0652 21.6497ZM22.7059 21.7394L22.2285 22.5352L18.506 20.3022L18.9834 19.5063L19.4609 18.7104L23.1833 20.9435L22.7059 21.7394ZM18.9834 19.5063L18.5063 20.3024C18.6105 20.3648 18.7391 20.3849 18.8604 20.3544L18.6341 19.4543L18.4079 18.5542C18.7679 18.4637 19.1451 18.5212 19.4606 18.7103L18.9834 19.5063ZM18.6341 19.4543L18.8586 20.3548C18.9792 20.3248 19.0839 20.2465 19.1467 20.1415L18.3503 19.6651L17.5538 19.1886C17.7435 18.8714 18.0496 18.6435 18.4096 18.5538L18.6341 19.4543ZM18.3503 19.6651L19.1455 20.1435C19.2093 20.0375 19.2278 19.9093 19.1987 19.7916L18.2978 20.0144L17.3968 20.2371C17.3087 19.8806 17.364 19.5041 17.555 19.1866L18.3503 19.6651ZM18.2978 20.0144L19.1982 19.7893C19.1679 19.6684 19.0899 19.5648 18.9864 19.5026L18.5085 20.2982L18.0306 21.0938C17.7153 20.9044 17.4873 20.5991 17.3974 20.2394L18.2978 20.0144ZM18.5085 20.2982L18.9859 19.5023L19.7102 19.9367L19.2329 20.7327L18.7555 21.5286L18.0312 21.0941L18.5085 20.2982ZM19.2329 20.7327L19.7103 19.9368L22.7083 21.7355L22.2308 22.5313L21.7533 23.3272L18.7554 21.5285L19.2329 20.7327ZM22.2308 22.5313L22.7086 21.7357C23.272 22.074 23.4543 22.8046 23.1164 23.368L22.3205 22.8906L21.5246 22.4133C21.3356 22.7284 21.4376 23.1376 21.753 23.327L22.2308 22.5313ZM22.3205 22.8906L23.1159 23.3689C22.7778 23.9311 22.0482 24.1143 21.4843 23.7765L21.9612 22.9803L22.4381 22.1842C22.1228 21.9953 21.7143 22.0978 21.5251 22.4124L22.3205 22.8906ZM21.9612 22.9803L21.4837 23.7762L18.451 21.9567L18.9285 21.1608L19.406 20.365L22.4387 22.1845L21.9612 22.9803ZM18.9285 21.1608L18.4501 21.9561C18.673 22.0902 18.9589 22.0168 19.0908 21.7971L18.2952 21.3193L17.4995 20.8414C17.8938 20.1849 18.7478 19.9691 19.4069 20.3655L18.9285 21.1608ZM18.2952 21.3193L19.0908 21.7971C19.154 21.6918 19.1728 21.5639 19.1436 21.446L18.2427 21.6687L17.3417 21.8915C17.2535 21.5348 17.309 21.1586 17.4995 20.8414L18.2952 21.3193ZM18.2427 21.6687L19.1431 21.4436C19.1126 21.322 19.0341 21.2187 18.9318 21.1572L18.4536 21.9526L17.9753 22.748C17.6608 22.5589 17.4324 22.2543 17.3423 21.8938L18.2427 21.6687ZM18.4536 21.9526L18.931 21.1567L19.6746 21.6028L19.1971 22.3987L18.7197 23.1945L17.9761 22.7485L18.4536 21.9526ZM19.1971 22.3987L19.6746 21.6028L21.9638 22.9763L21.4863 23.7721L21.0088 24.5679L18.7196 23.1945L19.1971 22.3987ZM21.4863 23.7721L21.9641 22.9764C22.5275 23.3148 22.7098 24.0454 22.3719 24.6088L21.576 24.1314L20.7801 23.654C20.5911 23.9691 20.693 24.3783 21.0085 24.5677L21.4863 23.7721ZM21.576 24.1314L22.3713 24.6097C22.0344 25.1701 21.3045 25.3571 20.7382 25.0164L21.2167 24.2211L21.6951 23.4258C21.3774 23.2347 20.9687 23.3403 20.7806 23.6531L21.576 24.1314ZM21.2167 24.2211L20.7392 25.017L18.45 23.6435L18.9275 22.8477L19.405 22.0518L21.6942 23.4253L21.2167 24.2211ZM18.9275 22.8477L18.4504 23.6437C18.5549 23.7064 18.6835 23.726 18.8031 23.6961L18.578 22.7957L18.353 21.8953C18.7126 21.8054 19.0889 21.8624 19.4046 22.0516L18.9275 22.8477ZM18.578 22.7957L18.8031 23.6961C18.9226 23.6662 19.0268 23.5889 19.09 23.4836L18.2942 23.0061L17.4983 22.5286C17.6884 22.2118 17.9948 21.9848 18.3529 21.8953L18.578 22.7957ZM18.2942 23.0061L19.0903 23.483C19.1527 23.3789 19.1721 23.2516 19.1426 23.1325L18.2417 23.3555L17.3408 23.5786C17.2523 23.221 17.3087 22.8451 17.498 22.5291L18.2942 23.0061ZM18.2417 23.3555L19.1421 23.1305C19.1117 23.0088 19.0331 22.9055 18.9308 22.844L18.4526 23.6394L17.9744 24.4348C17.6598 24.2457 17.4314 23.9411 17.3413 23.5806L18.2417 23.3555ZM18.4526 23.6394L18.93 22.8435L23.5707 25.6275L23.0933 26.4233L22.6158 27.2192L17.9752 24.4353L18.4526 23.6394ZM23.0933 26.4233L23.5708 25.6275C24.1348 25.9659 24.7679 26.0735 25.3522 25.9543L25.5378 26.8636L25.7233 27.773C24.6618 27.9896 23.558 27.7844 22.6158 27.2192L23.0933 26.4233ZM25.5378 26.8636L25.3521 25.9543C25.9261 25.8371 26.3703 25.5191 26.636 25.0761L27.4319 25.5535L28.2278 26.0309C27.6795 26.9451 26.7782 27.5576 25.7235 27.773L25.5378 26.8636ZM27.4319 25.5535L26.6361 25.0759C27.0907 24.3186 27.03 23.5022 26.4634 22.8158L27.1792 22.225L27.8949 21.6341C28.96 22.9245 29.0886 24.5968 28.2276 26.0312L27.4319 25.5535ZM27.1792 22.225L27.2711 23.1485L27.2708 23.1485L27.1789 22.225L27.0869 21.3015L27.0872 21.3014L27.1792 22.225Z" fill="#4CAF4F" mask="url(#path-4-inside-2_211_2338)"/>
</svg>
