<svg width="34" height="34" viewBox="0 0 34 34" fill="none" xmlns="http://www.w3.org/2000/svg">
<path d="M7.09076 5.71729H26.9286C28.0823 5.71729 29.189 6.176 30.0048 6.9917C30.8206 7.80751 31.2792 8.91415 31.2792 10.0679V23.6411C31.2792 24.7949 30.8207 25.9014 30.0048 26.7173C29.189 27.5331 28.0825 27.9917 26.9286 27.9917H7.09076C5.93703 27.9916 4.8304 27.5331 4.01459 26.7173C3.1989 25.9014 2.74017 24.7948 2.74017 23.6411V10.0679C2.74023 8.91415 3.19878 7.80751 4.01459 6.9917C4.8304 6.17589 5.93703 5.71735 7.09076 5.71729ZM4.13275 23.6411C4.13275 24.4256 4.44435 25.1781 4.99896 25.7329C5.5537 26.2876 6.30625 26.6 7.09076 26.6001H26.9286C27.7132 26.6001 28.4657 26.2877 29.0204 25.7329C29.5752 25.1781 29.8876 24.4257 29.8876 23.6411V13.3745H4.13275V23.6411ZM22.2304 20.3354H25.3632C25.5477 20.3356 25.725 20.4081 25.8554 20.5386C25.9858 20.669 26.0584 20.8463 26.0585 21.0308C26.0585 21.2152 25.9857 21.3925 25.8554 21.5229C25.725 21.6534 25.5477 21.7269 25.3632 21.7271H22.2304C22.0458 21.727 21.8687 21.6535 21.7382 21.5229C21.6078 21.3924 21.5341 21.2152 21.5341 21.0308C21.5342 20.8463 21.6078 20.669 21.7382 20.5386C21.8687 20.4082 22.0459 20.3355 22.2304 20.3354ZM7.09076 7.10986C6.30625 7.10992 5.5537 7.42134 4.99896 7.97607C4.44423 8.53081 4.13281 9.28336 4.13275 10.0679V11.9819H29.8876V10.0679C29.8876 9.28336 29.5752 8.53081 29.0204 7.97607C28.4657 7.42146 27.7131 7.10986 26.9286 7.10986H7.09076Z" fill="#4CAF4F" stroke="#4CAF4F" stroke-width="0.696069"/>
</svg>
