<svg width="221" height="59" viewBox="0 0 221 59" fill="none" xmlns="http://www.w3.org/2000/svg">
<path d="M19.2767 30.634L13.8858 39.8669L8.4949 30.634H19.2767ZM20.7209 29.8088H7.04486L13.8858 41.5L20.7209 29.8088Z" fill="#263238"/>
<path d="M28.6495 19.1504L34.0404 28.3833H23.2585L28.6495 19.1504ZM28.6495 17.5L21.8085 29.1912H35.4904L28.6495 17.5Z" fill="#263238"/>
<path d="M0.490417 17.5L6.22632 27.8409L12.4943 17.7597L0.490417 17.5Z" fill="#4CAF4F"/>
<path d="M13.8859 18.4059L19.9025 28.689H7.8577L13.8859 18.4059Z" fill="#4CAF4F"/>
<path d="M21.4519 30.934L27.4743 41.5H15.143L21.2648 30.934H21.4519Z" fill="#4CAF4F"/>
<path d="M22.7557 30.2935L28.6495 40.6978L34.6251 30.2935H22.7557Z" fill="#4CAF4F"/>
<path d="M60.5231 19.169V39.5326H56.8043L47.945 26.7159H47.7958V39.5326H43.4904V19.169H47.2688L56.0586 31.9758H56.2376V19.169H60.5231Z" fill="#263238"/>
<path d="M70.9609 39.8309C69.3899 39.8309 68.0376 39.5128 66.9041 38.8764C65.7772 38.2334 64.9089 37.3253 64.299 36.152C63.6892 34.972 63.3842 33.5767 63.3842 31.9659C63.3842 30.3949 63.6892 29.0161 64.299 27.8295C64.9089 26.643 65.7673 25.7182 66.8743 25.0554C67.9879 24.3925 69.2938 24.0611 70.7919 24.0611C71.7995 24.0611 72.7375 24.2235 73.6058 24.5483C74.4808 24.8664 75.2431 25.347 75.8928 25.99C76.549 26.633 77.0594 27.4417 77.424 28.4162C77.7886 29.384 77.9709 30.5175 77.9709 31.8167V32.9801H65.0746V30.3551H73.9837C73.9837 29.7452 73.8511 29.205 73.5859 28.7343C73.3208 28.2637 72.9529 27.8958 72.4823 27.6307C72.0182 27.3589 71.478 27.223 70.8615 27.223C70.2185 27.223 69.6484 27.3721 69.1513 27.6704C68.6608 27.9621 68.2763 28.3565 67.9979 28.8537C67.7195 29.3442 67.5769 29.8911 67.5703 30.4943V32.99C67.5703 33.7457 67.7095 34.3986 67.9879 34.9488C68.273 35.499 68.674 35.9233 69.1911 36.2216C69.7081 36.5199 70.3213 36.669 71.0305 36.669C71.5012 36.669 71.9321 36.6027 72.3232 36.4701C72.7143 36.3376 73.049 36.1387 73.3274 35.8736C73.6058 35.6084 73.8179 35.2836 73.9638 34.8991L77.8814 35.1576C77.6825 36.0989 77.2749 36.9209 76.6584 37.6236C76.0485 38.3196 75.2597 38.8631 74.2919 39.2542C73.3307 39.6387 72.2204 39.8309 70.9609 39.8309Z" fill="#263238"/>
<path d="M84.0014 24.2599L86.8054 29.5994L89.679 24.2599H94.0242L89.5994 31.8963L94.1435 39.5326H89.8182L86.8054 34.2528L83.8423 39.5326H79.4673L84.0014 31.8963L79.6264 24.2599H84.0014Z" fill="#263238"/>
<path d="M102.893 39.8309C101.329 39.8309 99.9834 39.4995 98.8565 38.8366C97.7363 38.1671 96.8745 37.2391 96.2713 36.0525C95.6747 34.866 95.3764 33.5004 95.3764 31.9559C95.3764 30.3915 95.678 29.0194 96.2813 27.8395C96.8911 26.6529 97.7562 25.7282 98.8764 25.0653C99.9967 24.3958 101.329 24.0611 102.874 24.0611C104.206 24.0611 105.373 24.303 106.374 24.7869C107.375 25.2708 108.167 25.9503 108.75 26.8253C109.333 27.7003 109.655 28.7277 109.714 29.9076H105.717C105.605 29.1453 105.306 28.5322 104.822 28.0682C104.345 27.5975 103.719 27.3622 102.943 27.3622C102.287 27.3622 101.714 27.5412 101.223 27.8991C100.739 28.2504 100.361 28.7642 100.089 29.4403C99.8177 30.1165 99.6818 30.9351 99.6818 31.8963C99.6818 32.8707 99.8144 33.6993 100.08 34.3821C100.351 35.0648 100.732 35.5852 101.223 35.9432C101.714 36.3011 102.287 36.4801 102.943 36.4801C103.427 36.4801 103.861 36.3807 104.246 36.1818C104.637 35.9829 104.958 35.6946 105.21 35.3167C105.469 34.9323 105.638 34.4716 105.717 33.9346H109.714C109.648 35.1013 109.33 36.1288 108.76 37.017C108.197 37.8986 107.418 38.588 106.423 39.0852C105.429 39.5824 104.252 39.8309 102.893 39.8309Z" fill="#263238"/>
<path d="M119.387 39.8309C117.816 39.8309 116.463 39.5128 115.33 38.8764C114.203 38.2334 113.335 37.3253 112.725 36.152C112.115 34.972 111.81 33.5767 111.81 31.9659C111.81 30.3949 112.115 29.0161 112.725 27.8295C113.335 26.643 114.193 25.7182 115.3 25.0554C116.414 24.3925 117.72 24.0611 119.218 24.0611C120.225 24.0611 121.163 24.2235 122.032 24.5483C122.907 24.8664 123.669 25.347 124.319 25.99C124.975 26.633 125.485 27.4417 125.85 28.4162C126.214 29.384 126.397 30.5175 126.397 31.8167V32.9801H113.5V30.3551H122.409C122.409 29.7452 122.277 29.205 122.012 28.7343C121.747 28.2637 121.379 27.8958 120.908 27.6307C120.444 27.3589 119.904 27.223 119.287 27.223C118.644 27.223 118.074 27.3721 117.577 27.6704C117.087 27.9621 116.702 28.3565 116.424 28.8537C116.145 29.3442 116.003 29.8911 115.996 30.4943V32.99C115.996 33.7457 116.135 34.3986 116.414 34.9488C116.699 35.499 117.1 35.9233 117.617 36.2216C118.134 36.5199 118.747 36.669 119.456 36.669C119.927 36.669 120.358 36.6027 120.749 36.4701C121.14 36.3376 121.475 36.1387 121.753 35.8736C122.032 35.6084 122.244 35.2836 122.39 34.8991L126.307 35.1576C126.108 36.0989 125.701 36.9209 125.084 37.6236C124.474 38.3196 123.685 38.8631 122.718 39.2542C121.757 39.6387 120.646 39.8309 119.387 39.8309Z" fill="#263238"/>
<path d="M133.397 30.7031V39.5326H129.161V24.2599H133.198V26.9545H133.377C133.715 26.0663 134.282 25.3636 135.077 24.8466C135.873 24.3229 136.837 24.0611 137.971 24.0611C139.031 24.0611 139.956 24.2931 140.745 24.7571C141.534 25.2211 142.147 25.884 142.584 26.7457C143.022 27.6008 143.24 28.6217 143.24 29.8082V39.5326H139.005V30.5639C139.011 29.6292 138.773 28.9001 138.289 28.3764C137.805 27.8461 137.139 27.5809 136.29 27.5809C135.72 27.5809 135.216 27.7036 134.779 27.9488C134.348 28.1941 134.01 28.5521 133.765 29.0227C133.526 29.4867 133.403 30.0468 133.397 30.7031Z" fill="#263238"/>
<path d="M154.702 24.2599V27.4417H145.505V24.2599H154.702ZM147.593 20.6008H151.829V34.8395C151.829 35.2306 151.888 35.5355 152.008 35.7542C152.127 35.9664 152.293 36.1155 152.505 36.2017C152.724 36.2879 152.976 36.3309 153.261 36.3309C153.46 36.3309 153.658 36.3144 153.857 36.2812C154.056 36.2415 154.209 36.2116 154.315 36.1917L154.981 39.3437C154.769 39.41 154.47 39.4862 154.086 39.5724C153.701 39.6652 153.234 39.7216 152.684 39.7415C151.663 39.7812 150.768 39.6453 149.999 39.3338C149.237 39.0222 148.644 38.5383 148.219 37.8821C147.795 37.2258 147.586 36.3972 147.593 35.3963V20.6008Z" fill="#263238"/>
</svg>
